<svg data-v-0dd9719b="" version="1.0" xmlns="http://www.w3.org/2000/svg" xmlns:xlink="http://www.w3.org/1999/xlink" width="100%" height="100%" viewBox="0 0 140 140" preserveAspectRatio="xMidYMid meet" color-interpolation-filters="sRGB" style="margin: auto;"> <rect data-v-0dd9719b="" x="0" y="0" width="100%" height="100%" fill="#ffffff" fill-opacity="1" class="background"></rect> <!----> <g data-v-0dd9719b="" fill="#333" class="icon-text-wrapper icon-svg-group iconsvg" transform="translate(20, 20)"><g fill="#333" class="iconsvg-imagesvg icon_container"><rect fill="#333" fill-opacity="0" stroke-width="2" x="0" y="0" width="100" height="100" class="image-rect"></rect> <svg viewBox="0 0 60 60" x="0" y="0" width="100" height="100" class="image-svg-svg bn" style="overflow: visible;"><g hollow-target="iconBnFill" mask="url(#a66e71d2-46cd-4b2b-82bb-c6fd4c1686be)"><g><svg fill="#000000" xmlns="http://www.w3.org/2000/svg" xmlns:xlink="http://www.w3.org/1999/xlink" xml:space="preserve" version="1.1" style="shape-rendering: geometricprecision; text-rendering: geometricprecision; overflow: visible;" viewBox="0 0 249 249" x="0" y="0" fill-rule="evenodd" clip-rule="evenodd" width="60" height="60" filtersec="colorsf775068270" filter="url(#JUIsgxdwrAa8QZQMZjDyb)"><g transform="scale(1, 1) skewX(0)"><defs><filter id="JUIsgxdwrAa8QZQMZjDyb"><feColorMatrix type="matrix" values="0 0 0 0 0.19921875  0 0 0 0 0.19921875  0 0 0 0 0.19921875  0 0 0 1 0"></feColorMatrix></filter></defs><g><path class="fil0" d="M125 0c68,0 124,56 124,125 0,68 -56,124 -124,124 -69,0 -125,-56 -125,-124 0,-69 56,-125 125,-125z"></path></g></g></svg></g> <g filter="url(#colors5320165461)"><svg xmlns="http://www.w3.org/2000/svg" xmlns:xlink="http://www.w3.org/1999/xlink" viewBox="0 0 33.264 53.06400000000001" width="45" height="45" x="7.5" y="7.5" class="image-svg-letter"><path transform="translate(-6.192000000000001 52.34400000000001)" d="M19.58-11.30L39.46-11.30L39.46 0.72L6.19 0.72L6.19-52.20L19.58-52.20L19.58-46.22Q20.02-49.32 21.53-50.83Q23.04-52.34 25.92-52.34L25.92-52.34L39.31-52.34L39.31-40.25L19.58-40.25L19.58-32.40L36.14-32.40L36.14-20.38L19.58-20.38L19.58-11.30Z"></path></svg></g></g><mask id="a66e71d2-46cd-4b2b-82bb-c6fd4c1686be"><g fill="white"><svg xmlns="http://www.w3.org/2000/svg" xmlns:xlink="http://www.w3.org/1999/xlink" xml:space="preserve" version="1.1" style="shape-rendering: geometricprecision; text-rendering: geometricprecision; overflow: visible;" viewBox="0 0 249 249" x="0" y="0" fill-rule="evenodd" clip-rule="evenodd" width="60" height="60" filtersec="colorsf775068270"><g transform="scale(1, 1) skewX(0)"><defs></defs><g><path d="M125 0c68,0 124,56 124,125 0,68 -56,124 -124,124 -69,0 -125,-56 -125,-124 0,-69 56,-125 125,-125z"></path></g></g></svg></g> <g fill="black"><svg xmlns="http://www.w3.org/2000/svg" xmlns:xlink="http://www.w3.org/1999/xlink" viewBox="0 0 33.264 53.06400000000001" width="45" height="45" x="7.5" y="7.5" class="image-svg-letter"><path transform="translate(-6.192000000000001 52.34400000000001)" d="M19.58-11.30L39.46-11.30L39.46 0.72L6.19 0.72L6.19-52.20L19.58-52.20L19.58-46.22Q20.02-49.32 21.53-50.83Q23.04-52.34 25.92-52.34L25.92-52.34L39.31-52.34L39.31-40.25L19.58-40.25L19.58-32.40L36.14-32.40L36.14-20.38L19.58-20.38L19.58-11.30Z"></path></svg></g></mask></svg> <defs><filter id="colors5320165461"><feColorMatrix type="matrix" values="0 0 0 0 0.19921875  0 0 0 0 0.19921875  0 0 0 0 0.19921875  0 0 0 1 0" class="icon-fecolormatrix"></feColorMatrix></filter> <filter id="colorsf775068270"><feColorMatrix type="matrix" values="0 0 0 0 0.99609375  0 0 0 0 0.99609375  0 0 0 0 0.99609375  0 0 0 1 0" class="icon-fecolormatrix"></feColorMatrix></filter> <filter id="colorsb5108593819"><feColorMatrix type="matrix" values="0 0 0 0 0  0 0 0 0 0  0 0 0 0 0  0 0 0 1 0" class="icon-fecolormatrix"></feColorMatrix></filter></defs></g> <g transform="translate(50,107)"><g data-gra="path-name" fill-rule="" class="tp-name iconsvg-namesvg"><g transform="scale(1)"><g><path d="" transform="translate(0, 0)"></path></g> <!----> <!----> <!----> <!----> <!----> <!----> <!----></g></g> <!----></g></g><defs v-gra="od"></defs></svg>